<mxfile host="Electron" modified="2024-09-20T09:28:38.252Z" agent="Mozilla/5.0 (Windows NT 10.0; Win64; x64) AppleWebKit/537.36 (KHTML, like Gecko) draw.io/21.7.5 Chrome/114.0.5735.289 Electron/25.8.1 Safari/537.36" etag="TmJM-oxDGYI5nIb_zOUg" version="21.7.5" type="device">
  <diagram name="PÃ¡gina-1" id="icHRRqdWYPpzi9K2ltdw">
    <mxGraphModel dx="1418" dy="820" grid="1" gridSize="10" guides="1" tooltips="1" connect="1" arrows="1" fold="1" page="1" pageScale="1" pageWidth="827" pageHeight="1169" math="0" shadow="0">
      <root>
        <mxCell id="0" />
        <mxCell id="1" parent="0" />
        <mxCell id="1i_P0T_JfQFRRhE5NHzo-7" style="edgeStyle=orthogonalEdgeStyle;rounded=0;orthogonalLoop=1;jettySize=auto;html=1;" edge="1" parent="1" source="1i_P0T_JfQFRRhE5NHzo-1" target="1i_P0T_JfQFRRhE5NHzo-3">
          <mxGeometry relative="1" as="geometry" />
        </mxCell>
        <mxCell id="1i_P0T_JfQFRRhE5NHzo-1" value="Inicio Act11T1" style="rounded=1;whiteSpace=wrap;html=1;" vertex="1" parent="1">
          <mxGeometry x="239" y="80" width="190" height="60" as="geometry" />
        </mxCell>
        <mxCell id="1i_P0T_JfQFRRhE5NHzo-8" style="edgeStyle=orthogonalEdgeStyle;rounded=0;orthogonalLoop=1;jettySize=auto;html=1;entryX=0;entryY=0.5;entryDx=0;entryDy=0;" edge="1" parent="1" source="1i_P0T_JfQFRRhE5NHzo-3" target="1i_P0T_JfQFRRhE5NHzo-16">
          <mxGeometry relative="1" as="geometry">
            <mxPoint x="334" y="420" as="targetPoint" />
            <Array as="points">
              <mxPoint x="334" y="490" />
            </Array>
          </mxGeometry>
        </mxCell>
        <mxCell id="1i_P0T_JfQFRRhE5NHzo-11" style="edgeStyle=orthogonalEdgeStyle;rounded=0;orthogonalLoop=1;jettySize=auto;html=1;entryX=0;entryY=0.5;entryDx=0;entryDy=0;" edge="1" parent="1" source="1i_P0T_JfQFRRhE5NHzo-3" target="1i_P0T_JfQFRRhE5NHzo-6">
          <mxGeometry relative="1" as="geometry" />
        </mxCell>
        <mxCell id="1i_P0T_JfQFRRhE5NHzo-3" value="&amp;nbsp;Tienes el titulo de bachiller?" style="rhombus;whiteSpace=wrap;html=1;fontSize=11;" vertex="1" parent="1">
          <mxGeometry x="252" y="220" width="164" height="130" as="geometry" />
        </mxCell>
        <mxCell id="1i_P0T_JfQFRRhE5NHzo-17" style="edgeStyle=orthogonalEdgeStyle;rounded=0;orthogonalLoop=1;jettySize=auto;html=1;entryX=1;entryY=0.75;entryDx=0;entryDy=0;" edge="1" parent="1" source="1i_P0T_JfQFRRhE5NHzo-6" target="1i_P0T_JfQFRRhE5NHzo-16">
          <mxGeometry relative="1" as="geometry">
            <Array as="points">
              <mxPoint x="582" y="502" />
            </Array>
          </mxGeometry>
        </mxCell>
        <mxCell id="1i_P0T_JfQFRRhE5NHzo-20" style="edgeStyle=orthogonalEdgeStyle;rounded=0;orthogonalLoop=1;jettySize=auto;html=1;entryX=0;entryY=0.5;entryDx=0;entryDy=0;" edge="1" parent="1" source="1i_P0T_JfQFRRhE5NHzo-6" target="1i_P0T_JfQFRRhE5NHzo-19">
          <mxGeometry relative="1" as="geometry" />
        </mxCell>
        <mxCell id="1i_P0T_JfQFRRhE5NHzo-6" value="Has aprobado las pruebas de acceso?" style="rhombus;whiteSpace=wrap;html=1;verticalAlign=middle;fontSize=11;" vertex="1" parent="1">
          <mxGeometry x="490" y="217.5" width="184" height="135" as="geometry" />
        </mxCell>
        <mxCell id="1i_P0T_JfQFRRhE5NHzo-14" value="SI" style="text;html=1;strokeColor=none;fillColor=none;align=center;verticalAlign=middle;whiteSpace=wrap;rounded=0;" vertex="1" parent="1">
          <mxGeometry x="320" y="390" width="60" height="30" as="geometry" />
        </mxCell>
        <mxCell id="1i_P0T_JfQFRRhE5NHzo-15" value="SI" style="text;html=1;strokeColor=none;fillColor=none;align=center;verticalAlign=middle;whiteSpace=wrap;rounded=0;" vertex="1" parent="1">
          <mxGeometry x="580" y="380" width="60" height="30" as="geometry" />
        </mxCell>
        <mxCell id="1i_P0T_JfQFRRhE5NHzo-25" style="edgeStyle=orthogonalEdgeStyle;rounded=0;orthogonalLoop=1;jettySize=auto;html=1;entryX=0.5;entryY=0;entryDx=0;entryDy=0;" edge="1" parent="1" source="1i_P0T_JfQFRRhE5NHzo-16" target="1i_P0T_JfQFRRhE5NHzo-22">
          <mxGeometry relative="1" as="geometry" />
        </mxCell>
        <mxCell id="1i_P0T_JfQFRRhE5NHzo-16" value="Escribir &quot;Puedes entrar a GS&quot;" style="shape=parallelogram;perimeter=parallelogramPerimeter;whiteSpace=wrap;html=1;fixedSize=1;" vertex="1" parent="1">
          <mxGeometry x="410" y="460" width="120" height="60" as="geometry" />
        </mxCell>
        <mxCell id="1i_P0T_JfQFRRhE5NHzo-21" style="edgeStyle=orthogonalEdgeStyle;rounded=0;orthogonalLoop=1;jettySize=auto;html=1;" edge="1" parent="1" source="1i_P0T_JfQFRRhE5NHzo-19" target="1i_P0T_JfQFRRhE5NHzo-22">
          <mxGeometry relative="1" as="geometry">
            <mxPoint x="760" y="600" as="targetPoint" />
            <Array as="points">
              <mxPoint x="750" y="630" />
            </Array>
          </mxGeometry>
        </mxCell>
        <mxCell id="1i_P0T_JfQFRRhE5NHzo-19" value="Escribir &lt;br&gt;&quot;No puedes entrar a GS&quot;" style="shape=parallelogram;perimeter=parallelogramPerimeter;whiteSpace=wrap;html=1;fixedSize=1;" vertex="1" parent="1">
          <mxGeometry x="700" y="255" width="120" height="60" as="geometry" />
        </mxCell>
        <mxCell id="1i_P0T_JfQFRRhE5NHzo-22" value="Fin Act11T1" style="rounded=1;whiteSpace=wrap;html=1;" vertex="1" parent="1">
          <mxGeometry x="410" y="600" width="120" height="60" as="geometry" />
        </mxCell>
        <mxCell id="1i_P0T_JfQFRRhE5NHzo-23" value="No" style="text;html=1;strokeColor=none;fillColor=none;align=center;verticalAlign=middle;whiteSpace=wrap;rounded=0;" vertex="1" parent="1">
          <mxGeometry x="416" y="255" width="60" height="30" as="geometry" />
        </mxCell>
        <mxCell id="1i_P0T_JfQFRRhE5NHzo-24" value="No" style="text;html=1;strokeColor=none;fillColor=none;align=center;verticalAlign=middle;whiteSpace=wrap;rounded=0;" vertex="1" parent="1">
          <mxGeometry x="660" y="250" width="60" height="30" as="geometry" />
        </mxCell>
      </root>
    </mxGraphModel>
  </diagram>
</mxfile>
